<svg xmlns="http://www.w3.org/2000/svg" width="2000" height="2000" viewBox="0 0 1500 1500"><g data-name="Layer 1"><path d="M0 1500h1500V0H0z" fill="NONE"/><clipPath id="a"><path transform="matrix(1 0 0 -1 0 1500)" d="M0 1500h1500V0H0z"/></clipPath><g clip-path="url(#a)"><path d="M945.715 456.961c.037 0 .038-5 0-5-.037 0-.038 5 0 5"/><path d="M945.375 451.663c-.006.042-.008.085-.011.127-.01.144-.01.55-.011.655a267.973 267.973 0 0 0-.004 3.036c.002.3.005.598.009.896l.006.258c.002.042.004.083.01.124.008.05.029.095.059.135a.795.795 0 0 0 .24.195 22.188 22.188 0 0 0 .018-.733c.006-.589.007-1.178.007-1.767a173.548 173.548 0 0 0-.013-2.159 3.229 3.229 0 0 0-.012-.34c-.133-.08-.287-.184-.301-.354l.006.09-.001-.018.015 1.15v-.007l-.01 3.42c-.007.242-.01.32-.004.234l-.007.09a2.21 2.21 0 0 0 .014-.246c.004-.174.007-.346.008-.518.006-.589.007-1.179.007-1.768a173.662 173.662 0 0 0-.012-2.159 3.533 3.533 0 0 0-.013-.34"/><path d="M944.651 455.94c.237.137.433.358.71.42.14.032.288.095.434.09.11-.003.247-.042.348.016l-.007-4.91v.016l.006-.089c-.017.078-.095.118-.164.143-.096.035-.167.017-.263-.005-.007.071-.01.143-.01.215a29.71 29.71 0 0 0-.008.517c-.006.59-.007 1.18-.007 1.768 0 .59 0 1.178.007 1.768l.005.39c0 .115.003.228.013.342.104.024.176.041.28 0a.304.304 0 0 0 .104-.064c.053-.05.046-.108.051-.18.022-.38.013-.769.015-1.149.003-.53.003-1.062.003-1.594 0-.478-.002-.957-.007-1.435l-.005-.39a3.554 3.554 0 0 0-.013-.343c-.098-.057-.23-.02-.338-.016-.15.007-.3-.057-.445-.09-.276-.062-.472-.283-.709-.42a2.21 2.21 0 0 0-.01.215c-.004.173-.007.345-.008.517-.006.59-.007 1.18-.007 1.768a173.662 173.662 0 0 0 .012 2.16c0 .113.003.226.013.34M451.597 555.516c.037 0 .038-5 0-5-.037 0-.038 5 0 5M450.854 549.865a1.64 1.64 0 0 0-.015.172c-.012.196-.01.485-.012.67a270.94 270.94 0 0 0-.004 3.043c.003.385-.002.774.015 1.161.003.055.006.11.014.164a.68.68 0 0 0 .128.295c.135.183.333.31.525.424a22.197 22.197 0 0 0 .017-.732c.006-.589.008-1.178.008-1.768-.001-.589-.001-1.178-.008-1.767a50.33 50.33 0 0 0-.005-.39 3.553 3.553 0 0 0-.012-.343c-.29-.174-.627-.399-.66-.768.004.03.006.06.008.09l-.002-.04.015 1.15v-.014l-.01 3.421c-.006.23-.008.3-.003.212l-.007.09a2.21 2.21 0 0 0 .018-.284c.004-.174.007-.346.008-.518.006-.589.007-1.179.007-1.768s-.001-1.179-.007-1.768l-.005-.39a3.533 3.533 0 0 0-.013-.342"/><path d="M449.274 553.285c.518.3.946.782 1.548.917.309.07.63.208.95.198.24-.008.54-.094.76.035l-.006-4.91a.434.434 0 0 0-.002.035l.006-.09c-.037.17-.207.258-.357.314-.21.077-.366.037-.576-.012l-.017.732c-.007.59-.008 1.18-.008 1.768 0 .59 0 1.18.008 1.768 0 .078-.02.723.017.732.227.054.385.09.61-.002.213-.086.318-.192.332-.424.054-.91.019-1.833.018-2.743-.001-.479-.001-.957-.007-1.436l-.005-.39a3.229 3.229 0 0 0-.012-.342c-.215-.125-.506-.046-.74-.036-.327.015-.655-.125-.971-.197-.602-.136-1.03-.618-1.548-.917.015.01-.02.835-.018.732-.006.59-.007 1.18-.007 1.768 0 .59 0 1.18.007 1.768l.005.391c-.001.114.003.228.013.341"/><path d="M549.867 601.133 379.973 445.775l-255.526 235.87v235.869l253.893 136.71.541-.211 61.151-24.024a11433.64 11433.64 0 0 0-253.781-141.181l.065-182.714L379.27 523.312A14196.107 14196.107 0 0 0 495.12 631.76l89.055.745-34.308-31.372" fill="#00adee"/><path stroke-width="4" stroke-miterlimit="10" fill="none" stroke="#00adee" d="M549.867 601.133 379.973 445.775l-255.526 235.87v235.869l253.893 136.71.541-.211 61.151-24.024a11433.64 11433.64 0 0 0-253.781-141.181l.065-182.714L379.27 523.312A14196.107 14196.107 0 0 0 495.12 631.76l89.055.745-34.308-31.372z"/><path d="m468.583 766.145 46.708 102.534c3.304 6.934 6.08 10.398 8.318 10.398 1.172 0 3.68-4 7.518-11.998 10.77-22.394 26.713-56.144 47.828-101.254 1.812-4.159 3.783-6.238 5.918-6.238 3.092 0 7.758.16 13.997.48 6.238.32 10.957.48 14.156.48 2.664 0 6.743-.265 12.237-.8 5.491-.533 9.57-.8 12.237-.8 3.2 0 4.8 1.28 4.8 3.84 0 12.583-.457 31.38-1.36 56.384-.908 25.01-1.36 43.805-1.36 56.386 0 11.625.48 29.06 1.44 52.307.96 23.25 1.44 40.63 1.44 52.146 0 3.306-1.549 4.96-4.64 4.96h-56.626c-3.094 0-4.639-1.865-4.639-5.599 0-10.77.4-26.927 1.2-48.467.8-21.54 1.2-37.696 1.2-48.469 0-3.09-.48-4.742-1.44-4.957-1.175.639-8.318 17.115-21.434 49.427a30550.254 30550.254 0 0 1-23.034 56.784c-1.068 2.453-2.4 3.894-3.999 4.32-.536.104-2.667.16-6.399.16-5.546 0-8.853-1.067-9.917-3.2-5.759-11.73-13.332-28.792-22.714-51.187-10.026-23.674-17.544-40.789-22.555-51.347M737.155 866.76c0 12.585.32 31.512.96 56.786.64 25.273.959 44.204.959 56.785 0 2.135-.48 3.466-1.44 3.999-.215.107-1.6.32-4.158.64-6.934.853-16.211 1.28-27.833 1.28-15.571 0-25.49-.427-29.752-1.28-3.095-.64-4.64-2.293-4.64-4.96 0 1.707.48-7.677 1.44-28.152 1.92-43.19 2.88-71.554 2.88-85.098 0-11.41-.376-28.525-1.12-51.347-.748-22.82-1.12-39.934-1.12-51.347 0-2.344 1.225-3.52 3.679-3.52 3.304 0 8.29.16 14.957.48 6.662.32 11.649.48 14.956.48 3.303 0 8.182-.16 14.636-.48 6.45-.32 11.329-.48 14.636-.48 3.092 0 4.639 1.176 4.639 3.52 0 11.413-.615 28.528-1.84 51.347-1.227 22.822-1.84 39.938-1.84 51.347M925.587 809.494c0 2.135-1.175 3.2-3.52 3.2-4.054 0-20.101-.8-48.147-2.4-.64 26.981-.96 45.804-.96 56.465 0 12.585.506 31.512 1.52 56.786 1.012 25.273 1.52 44.204 1.52 56.785 0 2.027-.48 3.306-1.44 3.84-.32.215-1.815.48-4.48.8-6.397.852-15.781 1.28-28.152 1.28-13.756 0-23.41-.428-28.952-1.28-2.988-.534-4.48-2.185-4.48-4.959 0-12.582.532-31.457 1.6-56.626 1.065-25.166 1.6-44.04 1.6-56.626 0-8.317-.43-26.873-1.28-55.665-21.33 2.134-38.337 3.2-51.027 3.2-1.707 0 3.252-37.536 3.679-42.55.745-7.998 2.024-11.997 3.839-11.997.213 0 .96.055 2.24.16 17.276 2.24 42.814 3.36 76.62 3.36 9.598 0 27.298-1.013 53.107-3.04 13.86-1.065 20.848-1.6 20.954-1.6 2.133 0 3.36.135 3.68.4.319.268.533 1.307.639 3.12 0 2.878-.106 6.877-.32 11.996-.215 5.654-.32 9.653-.32 11.997 0 2.667.346 6.586 1.039 11.757.693 5.174 1.04 9.038 1.04 11.597M1104.261 872.678c0-15.996-4.854-29.592-14.556-40.79-10.133-11.729-23.09-17.595-38.87-17.595-15.037 0-27.78 6.078-38.23 18.235-10.133 11.733-15.197 25.222-15.197 40.47 0 16.316 4.744 29.912 14.237 40.79 10.022 11.412 23.087 17.115 39.19 17.115 15.036 0 27.832-6.023 38.39-18.075 10.022-11.517 15.036-24.898 15.036-40.15m60.625.32c0 33.271-10.613 61.16-31.832 83.66-21.65 22.82-49.054 34.23-82.219 34.23-32.952 0-60.305-11.517-82.059-34.55-21.33-22.5-31.992-50.28-31.992-83.34 0-33.164 10.662-61.049 31.992-83.659 21.754-23.138 49.107-34.71 82.06-34.71 32.735 0 60.037 11.572 81.898 34.71 21.434 22.822 32.152 50.707 32.152 83.66M1375.552 948.819c0 1.706-1.12 3.946-3.359 6.718-19.622 23.354-45.695 35.03-78.22 35.03-33.272 0-60.252-11.356-80.94-34.07-20.154-21.967-30.232-49.692-30.232-83.18 0-32.415 9.862-59.928 29.593-82.538 20.58-23.674 46.761-35.511 78.54-35.511 34.551 0 61.637 10.613 81.26 31.832 2.132 2.347 3.198 4.427 3.198 6.239 0 2.027-3.707 9.545-11.118 22.554-7.412 13.012-12.076 20.315-13.996 21.914-.855.856-1.919 1.28-3.199 1.28-.535 0-3.199-2.132-7.998-6.398-5.758-5.12-11.412-9.118-16.955-11.997-8.425-4.264-17.172-6.4-26.234-6.4-15.676 0-28.208 5.868-37.59 17.597-8.638 10.877-12.957 24.314-12.957 40.31 0 16.21 4.32 29.807 12.957 40.789 9.382 11.945 21.914 17.916 37.59 17.916 9.278 0 18.076-2.024 26.394-6.08 5.438-2.663 10.981-6.397 16.635-11.196 4.692-4.051 7.303-6.078 7.838-6.078 1.065 0 2.133.587 3.2 1.759 1.704 1.92 6.342 8.586 13.916 19.995 7.782 11.837 11.677 18.342 11.677 19.515 " fill="#FFF"/><path d="m747.06 700.807-41.017 41.018-41.018-41.018 41.018-41.018zM456.929 762.593a62420.44 62420.44 0 0 0 0 230.872l-62.297-35.501 1.653-153.48 60.644-41.891" fill="#00adee"/><path d="M338.209 804.6h113.36c2.96 0 5.36-1.565 5.36-3.493v-37.113c0-1.929-2.4-3.493-5.36-3.493h-113.36c-2.96 0-5.36 1.564-5.36 3.493v37.113c0 1.928 2.4 3.492 5.36 3.492" fill="#00adee"/><path d="M543.952 1138.342c.037 0 .038-5 0-5-.037 0-.038 5 0 5"/><path d="M543.612 1133.044c-.006.042-.008.085-.011.127-.01.144-.01.549-.011.655a267.973 267.973 0 0 0-.004 3.036c.002.299.005.598.009.896l.006.258c.002.042.004.083.01.124.008.05.029.095.059.135a.795.795 0 0 0 .24.195 22.188 22.188 0 0 0 .018-.733c.006-.589.007-1.178.007-1.767a173.548 173.548 0 0 0-.013-2.159 3.229 3.229 0 0 0-.012-.341c-.133-.08-.287-.183-.301-.353l.006.09-.001-.018.015 1.149v-.006l-.01 3.42c-.007.242-.01.32-.004.234l-.007.09a2.21 2.21 0 0 0 .014-.247c.004-.173.007-.345.008-.517.006-.589.007-1.179.007-1.768a173.662 173.662 0 0 0-.012-2.159 3.521 3.521 0 0 0-.013-.341"/><path d="M542.889 1137.32c.236.138.433.359.708.42.142.033.29.096.436.09.11-.002.246-.041.347.018l-.006-4.911-.001.016.006-.09c-.016.079-.095.119-.163.144-.096.035-.168.017-.264-.005-.006.07-.01.143-.01.215a29.71 29.71 0 0 0-.007.517c-.006.589-.007 1.179-.007 1.768s0 1.178.007 1.768l.005.39c-.002.115.002.228.012.342.105.024.177.04.28-.001a.304.304 0 0 0 .105-.063c.053-.05.046-.108.05-.18.023-.38.014-.77.016-1.15.003-.53.003-1.061.003-1.593-.001-.478-.002-.957-.007-1.435-.002-.131-.005-.261-.005-.391a3.521 3.521 0 0 0-.014-.341c-.097-.058-.23-.022-.337-.017-.151.007-.3-.057-.446-.09-.275-.062-.471-.283-.708-.42a2.21 2.21 0 0 0-.01.215c-.005.173-.008.345-.009.517-.005.589-.006 1.179-.006 1.768a173.662 173.662 0 0 0 .011 2.159c0 .114.004.228.014.34"/></g></g></svg>