<svg width="24" height="24" viewBox="0 0 24 24" fill="none" xmlns="http://www.w3.org/2000/svg">
<mask id="mask0_2_22" style="mask-type:luminance" maskUnits="userSpaceOnUse" x="0" y="0" width="24" height="24">
<path d="M24 0H0V24H24V0Z" fill="white"/>
</mask>
<g >
<path d="M23 10.9998H1C0.447715 10.9998 0 11.4475 0 11.9998C0 12.5521 0.447715 12.9998 1 12.9998H23C23.5523 12.9998 24 12.5521 24 11.9998C24 11.4475 23.5523 10.9998 23 10.9998Z" fill="#fff"/>
<path d="M23 4.00037H1C0.447715 4.00037 0 4.44808 0 5.00036C0 5.55265 0.447715 6.00036 1 6.00036H23C23.5523 6.00036 24 5.55265 24 5.00036C24 4.44808 23.5523 4.00037 23 4.00037Z" fill="#fff"/>
<path d="M23 18H1C0.447715 18 0 18.4477 0 19C0 19.5523 0.447715 20 1 20H23C23.5523 20 24 19.5523 24 19C24 18.4477 23.5523 18 23 18Z" fill="#fff"/>
</g>
</svg>
